  0
SECTION
  2
HEADER
  9
$ACADVER
  1
AC1009
  9
$FILLMODE
 70
 0
  9
$SPLFRAME
 70
 1
  9
$EXTMIN
 10
0
 20
0
 30
0.0
  9
$EXTMAX
 10
1058.33
 20
1058.33
 30
0.0
  0
ENDSEC
  0
SECTION
  2
TABLES
  0
TABLE
  2
LAYER
 70
1
  0
LAYER
  2
0
 70
     0
 62
     7
  6
CONTINUOUS
  0
ENDTAB
  0
ENDSEC
  0
SECTION
  2
ENTITIES
  0
LINE
  8
0
 62
     0
 10
0.0950846
 20
95.5075
 30
0.0
 11
228.695
 21
95.5075
 31
0.0
  0
LINE
  8
0
 62
     0
 10
228.695
 20
95.5075
 30
0.0
 11
228.695
 21
0.257693
 31
0.0
  0
LINE
  8
0
 62
     0
 10
228.695
 20
0.257693
 30
0.0
 11
0.0950846
 21
0.257693
 31
0.0
  0
LINE
  8
0
 62
     0
 10
0.0950846
 20
0.257693
 30
0.0
 11
0.0950846
 21
95.5075
 31
0.0
  0
LINE
  8
0
 62
     0
 10
28.812
 20
16.7831
 30
0.0
 11
42.8128
 21
16.7831
 31
0.0
  0
LINE
  8
0
 62
     0
 10
42.8128
 20
16.7831
 30
0.0
 11
42.8128
 21
2.78364
 31
0.0
  0
LINE
  8
0
 62
     0
 10
42.8128
 20
2.78364
 30
0.0
 11
28.812
 21
2.78364
 31
0.0
  0
LINE
  8
0
 62
     0
 10
28.812
 20
2.78364
 30
0.0
 11
28.812
 21
16.7831
 31
0.0
  0
LINE
  8
0
 62
     0
 10
50.2447
 20
16.7831
 30
0.0
 11
64.244
 21
16.7831
 31
0.0
  0
LINE
  8
0
 62
     0
 10
64.244
 20
16.7831
 30
0.0
 11
64.244
 21
2.78364
 31
0.0
  0
LINE
  8
0
 62
     0
 10
64.244
 20
2.78364
 30
0.0
 11
50.2447
 21
2.78364
 31
0.0
  0
LINE
  8
0
 62
     0
 10
50.2447
 20
2.78364
 30
0.0
 11
50.2447
 21
16.7831
 31
0.0
  0
LINE
  8
0
 62
     0
 10
164.545
 20
16.7831
 30
0.0
 11
178.544
 21
16.7831
 31
0.0
  0
LINE
  8
0
 62
     0
 10
178.544
 20
16.7831
 30
0.0
 11
178.544
 21
2.78364
 31
0.0
  0
LINE
  8
0
 62
     0
 10
178.544
 20
2.78364
 30
0.0
 11
164.545
 21
2.78364
 31
0.0
  0
LINE
  8
0
 62
     0
 10
164.545
 20
2.78364
 30
0.0
 11
164.545
 21
16.7831
 31
0.0
  0
LINE
  8
0
 62
     0
 10
185.976
 20
16.7831
 30
0.0
 11
199.975
 21
16.7831
 31
0.0
  0
LINE
  8
0
 62
     0
 10
199.975
 20
16.7831
 30
0.0
 11
199.975
 21
2.78364
 31
0.0
  0
LINE
  8
0
 62
     0
 10
199.975
 20
2.78364
 30
0.0
 11
185.976
 21
2.78364
 31
0.0
  0
LINE
  8
0
 62
     0
 10
185.976
 20
2.78364
 30
0.0
 11
185.976
 21
16.7831
 31
0.0
  0
LINE
  8
0
 62
     0
 10
81.201
 20
35.833
 30
0.0
 11
81.201
 21
31.1326
 31
0.0
  0
LINE
  8
0
 62
     0
 10
81.201
 20
31.1326
 30
0.0
 11
79.6756
 21
31.1326
 31
0.0
  0
LINE
  8
0
 62
     0
 10
79.6756
 20
31.1326
 30
0.0
 11
79.6756
 21
34.3628
 31
0.0
  0
LINE
  8
0
 62
     0
 10
79.6756
 20
34.3628
 30
0.0
 11
77.9501
 21
34.3628
 31
0.0
  0
LINE
  8
0
 62
     0
 10
77.9501
 20
34.3628
 30
0.0
 11
77.9501
 21
35.2848
 31
0.0
  0
LINE
  8
0
 62
     0
 10
77.9501
 20
35.2848
 30
0.0
 11
74.651
 21
35.2848
 31
0.0
  0
LINE
  8
0
 62
     0
 10
74.651
 20
35.2848
 30
0.0
 11
74.651
 21
34.3628
 31
0.0
  0
LINE
  8
0
 62
     0
 10
74.651
 20
34.3628
 30
0.0
 11
72.9259
 21
34.3628
 31
0.0
  0
LINE
  8
0
 62
     0
 10
72.9259
 20
34.3628
 30
0.0
 11
72.9259
 21
31.1326
 31
0.0
  0
LINE
  8
0
 62
     0
 10
72.9259
 20
31.1326
 30
0.0
 11
72.1004
 21
31.1326
 31
0.0
  0
LINE
  8
0
 62
     0
 10
72.1004
 20
31.1326
 30
0.0
 11
72.1004
 21
28.3338
 31
0.0
  0
LINE
  8
0
 62
     0
 10
72.1004
 20
28.3338
 30
0.0
 11
72.9259
 21
28.3338
 31
0.0
  0
LINE
  8
0
 62
     0
 10
72.9259
 20
28.3338
 30
0.0
 11
72.9259
 21
22.0638
 31
0.0
  0
LINE
  8
0
 62
     0
 10
72.9259
 20
22.0638
 30
0.0
 11
74.651
 21
22.0638
 31
0.0
  0
LINE
  8
0
 62
     0
 10
74.651
 20
22.0638
 30
0.0
 11
74.651
 21
21.0826
 31
0.0
  0
LINE
  8
0
 62
     0
 10
74.651
 20
21.0826
 30
0.0
 11
77.9501
 21
21.0826
 31
0.0
  0
LINE
  8
0
 62
     0
 10
77.9501
 20
21.0826
 30
0.0
 11
77.9501
 21
22.0638
 31
0.0
  0
LINE
  8
0
 62
     0
 10
77.9501
 20
22.0638
 30
0.0
 11
79.6756
 21
22.0638
 31
0.0
  0
LINE
  8
0
 62
     0
 10
79.6756
 20
22.0638
 30
0.0
 11
79.6756
 21
26.5327
 31
0.0
  0
LINE
  8
0
 62
     0
 10
79.6756
 20
26.5327
 30
0.0
 11
81.201
 21
26.5327
 31
0.0
  0
LINE
  8
0
 62
     0
 10
81.201
 20
26.5327
 30
0.0
 11
81.201
 21
21.8336
 31
0.0
  0
LINE
  8
0
 62
     0
 10
81.201
 20
21.8336
 30
0.0
 11
95.2003
 21
21.8336
 31
0.0
  0
LINE
  8
0
 62
     0
 10
95.2003
 20
21.8336
 30
0.0
 11
95.2003
 21
26.5327
 31
0.0
  0
LINE
  8
0
 62
     0
 10
95.2003
 20
26.5327
 30
0.0
 11
96.726
 21
26.5327
 31
0.0
  0
LINE
  8
0
 62
     0
 10
96.726
 20
26.5327
 30
0.0
 11
96.726
 21
22.0638
 31
0.0
  0
LINE
  8
0
 62
     0
 10
96.726
 20
22.0638
 30
0.0
 11
98.4497
 21
22.0638
 31
0.0
  0
LINE
  8
0
 62
     0
 10
98.4497
 20
22.0638
 30
0.0
 11
98.4497
 21
21.0826
 31
0.0
  0
LINE
  8
0
 62
     0
 10
98.4497
 20
21.0826
 30
0.0
 11
101.75
 21
21.0826
 31
0.0
  0
LINE
  8
0
 62
     0
 10
101.75
 20
21.0826
 30
0.0
 11
101.75
 21
22.0638
 31
0.0
  0
LINE
  8
0
 62
     0
 10
101.75
 20
22.0638
 30
0.0
 11
103.475
 21
22.0638
 31
0.0
  0
LINE
  8
0
 62
     0
 10
103.475
 20
22.0638
 30
0.0
 11
103.475
 21
28.3338
 31
0.0
  0
LINE
  8
0
 62
     0
 10
103.475
 20
28.3338
 30
0.0
 11
104.301
 21
28.3338
 31
0.0
  0
LINE
  8
0
 62
     0
 10
104.301
 20
28.3338
 30
0.0
 11
104.301
 21
31.1326
 31
0.0
  0
LINE
  8
0
 62
     0
 10
104.301
 20
31.1326
 30
0.0
 11
103.475
 21
31.1326
 31
0.0
  0
LINE
  8
0
 62
     0
 10
103.475
 20
31.1326
 30
0.0
 11
103.475
 21
34.3628
 31
0.0
  0
LINE
  8
0
 62
     0
 10
103.475
 20
34.3628
 30
0.0
 11
101.75
 21
34.3628
 31
0.0
  0
LINE
  8
0
 62
     0
 10
101.75
 20
34.3628
 30
0.0
 11
101.75
 21
35.2848
 31
0.0
  0
LINE
  8
0
 62
     0
 10
101.75
 20
35.2848
 30
0.0
 11
98.4497
 21
35.2848
 31
0.0
  0
LINE
  8
0
 62
     0
 10
98.4497
 20
35.2848
 30
0.0
 11
98.4497
 21
34.3628
 31
0.0
  0
LINE
  8
0
 62
     0
 10
98.4497
 20
34.3628
 30
0.0
 11
96.726
 21
34.3628
 31
0.0
  0
LINE
  8
0
 62
     0
 10
96.726
 20
34.3628
 30
0.0
 11
96.726
 21
31.1326
 31
0.0
  0
LINE
  8
0
 62
     0
 10
96.726
 20
31.1326
 30
0.0
 11
95.2003
 21
31.1326
 31
0.0
  0
LINE
  8
0
 62
     0
 10
95.2003
 20
31.1326
 30
0.0
 11
95.2003
 21
35.833
 31
0.0
  0
LINE
  8
0
 62
     0
 10
95.2003
 20
35.833
 30
0.0
 11
81.201
 21
35.833
 31
0.0
  0
LINE
  8
0
 62
     0
 10
128.826
 20
35.833
 30
0.0
 11
128.826
 21
31.1326
 31
0.0
  0
LINE
  8
0
 62
     0
 10
128.826
 20
31.1326
 30
0.0
 11
127.301
 21
31.1326
 31
0.0
  0
LINE
  8
0
 62
     0
 10
127.301
 20
31.1326
 30
0.0
 11
127.301
 21
34.3628
 31
0.0
  0
LINE
  8
0
 62
     0
 10
127.301
 20
34.3628
 30
0.0
 11
125.575
 21
34.3628
 31
0.0
  0
LINE
  8
0
 62
     0
 10
125.575
 20
34.3628
 30
0.0
 11
125.575
 21
35.2848
 31
0.0
  0
LINE
  8
0
 62
     0
 10
125.575
 20
35.2848
 30
0.0
 11
122.276
 21
35.2848
 31
0.0
  0
LINE
  8
0
 62
     0
 10
122.276
 20
35.2848
 30
0.0
 11
122.276
 21
34.3628
 31
0.0
  0
LINE
  8
0
 62
     0
 10
122.276
 20
34.3628
 30
0.0
 11
120.551
 21
34.3628
 31
0.0
  0
LINE
  8
0
 62
     0
 10
120.551
 20
34.3628
 30
0.0
 11
120.551
 21
31.1326
 31
0.0
  0
LINE
  8
0
 62
     0
 10
120.551
 20
31.1326
 30
0.0
 11
119.725
 21
31.1326
 31
0.0
  0
LINE
  8
0
 62
     0
 10
119.725
 20
31.1326
 30
0.0
 11
119.725
 21
28.3338
 31
0.0
  0
LINE
  8
0
 62
     0
 10
119.725
 20
28.3338
 30
0.0
 11
120.551
 21
28.3338
 31
0.0
  0
LINE
  8
0
 62
     0
 10
120.551
 20
28.3338
 30
0.0
 11
120.551
 21
22.0638
 31
0.0
  0
LINE
  8
0
 62
     0
 10
120.551
 20
22.0638
 30
0.0
 11
122.276
 21
22.0638
 31
0.0
  0
LINE
  8
0
 62
     0
 10
122.276
 20
22.0638
 30
0.0
 11
122.276
 21
21.0826
 31
0.0
  0
LINE
  8
0
 62
     0
 10
122.276
 20
21.0826
 30
0.0
 11
125.575
 21
21.0826
 31
0.0
  0
LINE
  8
0
 62
     0
 10
125.575
 20
21.0826
 30
0.0
 11
125.575
 21
22.0638
 31
0.0
  0
LINE
  8
0
 62
     0
 10
125.575
 20
22.0638
 30
0.0
 11
127.301
 21
22.0638
 31
0.0
  0
LINE
  8
0
 62
     0
 10
127.301
 20
22.0638
 30
0.0
 11
127.301
 21
26.5327
 31
0.0
  0
LINE
  8
0
 62
     0
 10
127.301
 20
26.5327
 30
0.0
 11
128.826
 21
26.5327
 31
0.0
  0
LINE
  8
0
 62
     0
 10
128.826
 20
26.5327
 30
0.0
 11
128.826
 21
21.8336
 31
0.0
  0
LINE
  8
0
 62
     0
 10
128.826
 20
21.8336
 30
0.0
 11
142.825
 21
21.8336
 31
0.0
  0
LINE
  8
0
 62
     0
 10
142.825
 20
21.8336
 30
0.0
 11
142.825
 21
26.5327
 31
0.0
  0
LINE
  8
0
 62
     0
 10
142.825
 20
26.5327
 30
0.0
 11
144.351
 21
26.5327
 31
0.0
  0
LINE
  8
0
 62
     0
 10
144.351
 20
26.5327
 30
0.0
 11
144.351
 21
22.0638
 31
0.0
  0
LINE
  8
0
 62
     0
 10
144.351
 20
22.0638
 30
0.0
 11
146.075
 21
22.0638
 31
0.0
  0
LINE
  8
0
 62
     0
 10
146.075
 20
22.0638
 30
0.0
 11
146.075
 21
21.0826
 31
0.0
  0
LINE
  8
0
 62
     0
 10
146.075
 20
21.0826
 30
0.0
 11
149.375
 21
21.0826
 31
0.0
  0
LINE
  8
0
 62
     0
 10
149.375
 20
21.0826
 30
0.0
 11
149.375
 21
22.0638
 31
0.0
  0
LINE
  8
0
 62
     0
 10
149.375
 20
22.0638
 30
0.0
 11
151.1
 21
22.0638
 31
0.0
  0
LINE
  8
0
 62
     0
 10
151.1
 20
22.0638
 30
0.0
 11
151.1
 21
28.3338
 31
0.0
  0
LINE
  8
0
 62
     0
 10
151.1
 20
28.3338
 30
0.0
 11
151.926
 21
28.3338
 31
0.0
  0
LINE
  8
0
 62
     0
 10
151.926
 20
28.3338
 30
0.0
 11
151.926
 21
31.1326
 31
0.0
  0
LINE
  8
0
 62
     0
 10
151.926
 20
31.1326
 30
0.0
 11
151.1
 21
31.1326
 31
0.0
  0
LINE
  8
0
 62
     0
 10
151.1
 20
31.1326
 30
0.0
 11
151.1
 21
34.3628
 31
0.0
  0
LINE
  8
0
 62
     0
 10
151.1
 20
34.3628
 30
0.0
 11
149.375
 21
34.3628
 31
0.0
  0
LINE
  8
0
 62
     0
 10
149.375
 20
34.3628
 30
0.0
 11
149.375
 21
35.2848
 31
0.0
  0
LINE
  8
0
 62
     0
 10
149.375
 20
35.2848
 30
0.0
 11
146.075
 21
35.2848
 31
0.0
  0
LINE
  8
0
 62
     0
 10
146.075
 20
35.2848
 30
0.0
 11
146.075
 21
34.3628
 31
0.0
  0
LINE
  8
0
 62
     0
 10
146.075
 20
34.3628
 30
0.0
 11
144.351
 21
34.3628
 31
0.0
  0
LINE
  8
0
 62
     0
 10
144.351
 20
34.3628
 30
0.0
 11
144.351
 21
31.1326
 31
0.0
  0
LINE
  8
0
 62
     0
 10
144.351
 20
31.1326
 30
0.0
 11
142.825
 21
31.1326
 31
0.0
  0
LINE
  8
0
 62
     0
 10
142.825
 20
31.1326
 30
0.0
 11
142.825
 21
35.833
 31
0.0
  0
LINE
  8
0
 62
     0
 10
142.825
 20
35.833
 30
0.0
 11
128.826
 21
35.833
 31
0.0
  0
LINE
  8
0
 62
     0
 10
5.00091
 20
35.833
 30
0.0
 11
19.0004
 21
35.833
 31
0.0
  0
LINE
  8
0
 62
     0
 10
19.0004
 20
35.833
 30
0.0
 11
19.0004
 21
21.8336
 31
0.0
  0
LINE
  8
0
 62
     0
 10
19.0004
 20
21.8336
 30
0.0
 11
5.00091
 21
21.8336
 31
0.0
  0
LINE
  8
0
 62
     0
 10
5.00091
 20
21.8336
 30
0.0
 11
5.00091
 21
35.833
 31
0.0
  0
LINE
  8
0
 62
     0
 10
26.4322
 20
35.833
 30
0.0
 11
40.4315
 21
35.833
 31
0.0
  0
LINE
  8
0
 62
     0
 10
40.4315
 20
35.833
 30
0.0
 11
40.4315
 21
21.8336
 31
0.0
  0
LINE
  8
0
 62
     0
 10
40.4315
 20
21.8336
 30
0.0
 11
26.4322
 21
21.8336
 31
0.0
  0
LINE
  8
0
 62
     0
 10
26.4322
 20
21.8336
 30
0.0
 11
26.4322
 21
35.833
 31
0.0
  0
LINE
  8
0
 62
     0
 10
47.8621
 20
35.833
 30
0.0
 11
61.8628
 21
35.833
 31
0.0
  0
LINE
  8
0
 62
     0
 10
61.8628
 20
35.833
 30
0.0
 11
61.8628
 21
21.8336
 31
0.0
  0
LINE
  8
0
 62
     0
 10
61.8628
 20
21.8336
 30
0.0
 11
47.8621
 21
21.8336
 31
0.0
  0
LINE
  8
0
 62
     0
 10
47.8621
 20
21.8336
 30
0.0
 11
47.8621
 21
35.833
 31
0.0
  0
LINE
  8
0
 62
     0
 10
166.926
 20
35.833
 30
0.0
 11
180.925
 21
35.833
 31
0.0
  0
LINE
  8
0
 62
     0
 10
180.925
 20
35.833
 30
0.0
 11
180.925
 21
21.8336
 31
0.0
  0
LINE
  8
0
 62
     0
 10
180.925
 20
21.8336
 30
0.0
 11
166.926
 21
21.8336
 31
0.0
  0
LINE
  8
0
 62
     0
 10
166.926
 20
21.8336
 30
0.0
 11
166.926
 21
35.833
 31
0.0
  0
LINE
  8
0
 62
     0
 10
188.357
 20
35.833
 30
0.0
 11
202.357
 21
35.833
 31
0.0
  0
LINE
  8
0
 62
     0
 10
202.357
 20
35.833
 30
0.0
 11
202.357
 21
21.8336
 31
0.0
  0
LINE
  8
0
 62
     0
 10
202.357
 20
21.8336
 30
0.0
 11
188.357
 21
21.8336
 31
0.0
  0
LINE
  8
0
 62
     0
 10
188.357
 20
21.8336
 30
0.0
 11
188.357
 21
35.833
 31
0.0
  0
LINE
  8
0
 62
     0
 10
209.787
 20
35.833
 30
0.0
 11
223.788
 21
35.833
 31
0.0
  0
LINE
  8
0
 62
     0
 10
223.788
 20
35.833
 30
0.0
 11
223.788
 21
21.8336
 31
0.0
  0
LINE
  8
0
 62
     0
 10
223.788
 20
21.8336
 30
0.0
 11
209.787
 21
21.8336
 31
0.0
  0
LINE
  8
0
 62
     0
 10
209.787
 20
21.8336
 30
0.0
 11
209.787
 21
35.833
 31
0.0
  0
LINE
  8
0
 62
     0
 10
9.76203
 20
54.8831
 30
0.0
 11
23.7629
 21
54.8831
 31
0.0
  0
LINE
  8
0
 62
     0
 10
23.7629
 20
54.8831
 30
0.0
 11
23.7629
 21
40.8838
 31
0.0
  0
LINE
  8
0
 62
     0
 10
23.7629
 20
40.8838
 30
0.0
 11
9.76203
 21
40.8838
 31
0.0
  0
LINE
  8
0
 62
     0
 10
9.76203
 20
40.8838
 30
0.0
 11
9.76203
 21
54.8831
 31
0.0
  0
LINE
  8
0
 62
     0
 10
35.9572
 20
54.8831
 30
0.0
 11
49.9565
 21
54.8831
 31
0.0
  0
LINE
  8
0
 62
     0
 10
49.9565
 20
54.8831
 30
0.0
 11
49.9565
 21
40.8838
 31
0.0
  0
LINE
  8
0
 62
     0
 10
49.9565
 20
40.8838
 30
0.0
 11
35.9572
 21
40.8838
 31
0.0
  0
LINE
  8
0
 62
     0
 10
35.9572
 20
40.8838
 30
0.0
 11
35.9572
 21
54.8831
 31
0.0
  0
LINE
  8
0
 62
     0
 10
55.0072
 20
54.8831
 30
0.0
 11
69.0065
 21
54.8831
 31
0.0
  0
LINE
  8
0
 62
     0
 10
69.0065
 20
54.8831
 30
0.0
 11
69.0065
 21
40.8838
 31
0.0
  0
LINE
  8
0
 62
     0
 10
69.0065
 20
40.8838
 30
0.0
 11
55.0072
 21
40.8838
 31
0.0
  0
LINE
  8
0
 62
     0
 10
55.0072
 20
40.8838
 30
0.0
 11
55.0072
 21
54.8831
 31
0.0
  0
LINE
  8
0
 62
     0
 10
74.0572
 20
54.8831
 30
0.0
 11
88.0565
 21
54.8831
 31
0.0
  0
LINE
  8
0
 62
     0
 10
88.0565
 20
54.8831
 30
0.0
 11
88.0565
 21
40.8838
 31
0.0
  0
LINE
  8
0
 62
     0
 10
88.0565
 20
40.8838
 30
0.0
 11
74.0572
 21
40.8838
 31
0.0
  0
LINE
  8
0
 62
     0
 10
74.0572
 20
40.8838
 30
0.0
 11
74.0572
 21
54.8831
 31
0.0
  0
LINE
  8
0
 62
     0
 10
93.1072
 20
54.8831
 30
0.0
 11
107.107
 21
54.8831
 31
0.0
  0
LINE
  8
0
 62
     0
 10
107.107
 20
54.8831
 30
0.0
 11
107.107
 21
40.8838
 31
0.0
  0
LINE
  8
0
 62
     0
 10
107.107
 20
40.8838
 30
0.0
 11
93.1072
 21
40.8838
 31
0.0
  0
LINE
  8
0
 62
     0
 10
93.1072
 20
40.8838
 30
0.0
 11
93.1072
 21
54.8831
 31
0.0
  0
LINE
  8
0
 62
     0
 10
112.157
 20
54.8831
 30
0.0
 11
126.157
 21
54.8831
 31
0.0
  0
LINE
  8
0
 62
     0
 10
126.157
 20
54.8831
 30
0.0
 11
126.157
 21
40.8838
 31
0.0
  0
LINE
  8
0
 62
     0
 10
126.157
 20
40.8838
 30
0.0
 11
112.157
 21
40.8838
 31
0.0
  0
LINE
  8
0
 62
     0
 10
112.157
 20
40.8838
 30
0.0
 11
112.157
 21
54.8831
 31
0.0
  0
LINE
  8
0
 62
     0
 10
131.207
 20
54.8831
 30
0.0
 11
145.207
 21
54.8831
 31
0.0
  0
LINE
  8
0
 62
     0
 10
145.207
 20
54.8831
 30
0.0
 11
145.207
 21
40.8838
 31
0.0
  0
LINE
  8
0
 62
     0
 10
145.207
 20
40.8838
 30
0.0
 11
131.207
 21
40.8838
 31
0.0
  0
LINE
  8
0
 62
     0
 10
131.207
 20
40.8838
 30
0.0
 11
131.207
 21
54.8831
 31
0.0
  0
LINE
  8
0
 62
     0
 10
150.257
 20
54.8831
 30
0.0
 11
164.257
 21
54.8831
 31
0.0
  0
LINE
  8
0
 62
     0
 10
164.257
 20
54.8831
 30
0.0
 11
164.257
 21
40.8838
 31
0.0
  0
LINE
  8
0
 62
     0
 10
164.257
 20
40.8838
 30
0.0
 11
150.257
 21
40.8838
 31
0.0
  0
LINE
  8
0
 62
     0
 10
150.257
 20
40.8838
 30
0.0
 11
150.257
 21
54.8831
 31
0.0
  0
LINE
  8
0
 62
     0
 10
169.307
 20
54.8831
 30
0.0
 11
183.307
 21
54.8831
 31
0.0
  0
LINE
  8
0
 62
     0
 10
183.307
 20
54.8831
 30
0.0
 11
183.307
 21
40.8838
 31
0.0
  0
LINE
  8
0
 62
     0
 10
183.307
 20
40.8838
 30
0.0
 11
169.307
 21
40.8838
 31
0.0
  0
LINE
  8
0
 62
     0
 10
169.307
 20
40.8838
 30
0.0
 11
169.307
 21
54.8831
 31
0.0
  0
LINE
  8
0
 62
     0
 10
188.357
 20
54.8831
 30
0.0
 11
202.357
 21
54.8831
 31
0.0
  0
LINE
  8
0
 62
     0
 10
202.357
 20
54.8831
 30
0.0
 11
202.357
 21
40.8838
 31
0.0
  0
LINE
  8
0
 62
     0
 10
202.357
 20
40.8838
 30
0.0
 11
188.357
 21
40.8838
 31
0.0
  0
LINE
  8
0
 62
     0
 10
188.357
 20
40.8838
 30
0.0
 11
188.357
 21
54.8831
 31
0.0
  0
LINE
  8
0
 62
     0
 10
209.787
 20
54.8831
 30
0.0
 11
223.788
 21
54.8831
 31
0.0
  0
LINE
  8
0
 62
     0
 10
223.788
 20
54.8831
 30
0.0
 11
223.788
 21
40.8838
 31
0.0
  0
LINE
  8
0
 62
     0
 10
223.788
 20
40.8838
 30
0.0
 11
209.787
 21
40.8838
 31
0.0
  0
LINE
  8
0
 62
     0
 10
209.787
 20
40.8838
 30
0.0
 11
209.787
 21
54.8831
 31
0.0
  0
LINE
  8
0
 62
     0
 10
5.00091
 20
73.9331
 30
0.0
 11
19.0004
 21
73.9331
 31
0.0
  0
LINE
  8
0
 62
     0
 10
19.0004
 20
73.9331
 30
0.0
 11
19.0004
 21
59.9338
 31
0.0
  0
LINE
  8
0
 62
     0
 10
19.0004
 20
59.9338
 30
0.0
 11
5.00091
 21
59.9338
 31
0.0
  0
LINE
  8
0
 62
     0
 10
5.00091
 20
59.9338
 30
0.0
 11
5.00091
 21
73.9331
 31
0.0
  0
LINE
  8
0
 62
     0
 10
26.4322
 20
73.9331
 30
0.0
 11
40.4315
 21
73.9331
 31
0.0
  0
LINE
  8
0
 62
     0
 10
40.4315
 20
73.9331
 30
0.0
 11
40.4315
 21
59.9338
 31
0.0
  0
LINE
  8
0
 62
     0
 10
40.4315
 20
59.9338
 30
0.0
 11
26.4322
 21
59.9338
 31
0.0
  0
LINE
  8
0
 62
     0
 10
26.4322
 20
59.9338
 30
0.0
 11
26.4322
 21
73.9331
 31
0.0
  0
LINE
  8
0
 62
     0
 10
45.4822
 20
73.9331
 30
0.0
 11
59.4815
 21
73.9331
 31
0.0
  0
LINE
  8
0
 62
     0
 10
59.4815
 20
73.9331
 30
0.0
 11
59.4815
 21
59.9338
 31
0.0
  0
LINE
  8
0
 62
     0
 10
59.4815
 20
59.9338
 30
0.0
 11
45.4822
 21
59.9338
 31
0.0
  0
LINE
  8
0
 62
     0
 10
45.4822
 20
59.9338
 30
0.0
 11
45.4822
 21
73.9331
 31
0.0
  0
LINE
  8
0
 62
     0
 10
64.5322
 20
73.9331
 30
0.0
 11
78.5315
 21
73.9331
 31
0.0
  0
LINE
  8
0
 62
     0
 10
78.5315
 20
73.9331
 30
0.0
 11
78.5315
 21
59.9338
 31
0.0
  0
LINE
  8
0
 62
     0
 10
78.5315
 20
59.9338
 30
0.0
 11
64.5322
 21
59.9338
 31
0.0
  0
LINE
  8
0
 62
     0
 10
64.5322
 20
59.9338
 30
0.0
 11
64.5322
 21
73.9331
 31
0.0
  0
LINE
  8
0
 62
     0
 10
83.5822
 20
73.9331
 30
0.0
 11
97.5815
 21
73.9331
 31
0.0
  0
LINE
  8
0
 62
     0
 10
97.5815
 20
73.9331
 30
0.0
 11
97.5815
 21
59.9338
 31
0.0
  0
LINE
  8
0
 62
     0
 10
97.5815
 20
59.9338
 30
0.0
 11
83.5822
 21
59.9338
 31
0.0
  0
LINE
  8
0
 62
     0
 10
83.5822
 20
59.9338
 30
0.0
 11
83.5822
 21
73.9331
 31
0.0
  0
LINE
  8
0
 62
     0
 10
102.632
 20
73.9331
 30
0.0
 11
116.632
 21
73.9331
 31
0.0
  0
LINE
  8
0
 62
     0
 10
116.632
 20
73.9331
 30
0.0
 11
116.632
 21
59.9338
 31
0.0
  0
LINE
  8
0
 62
     0
 10
116.632
 20
59.9338
 30
0.0
 11
102.632
 21
59.9338
 31
0.0
  0
LINE
  8
0
 62
     0
 10
102.632
 20
59.9338
 30
0.0
 11
102.632
 21
73.9331
 31
0.0
  0
LINE
  8
0
 62
     0
 10
121.682
 20
73.9331
 30
0.0
 11
135.682
 21
73.9331
 31
0.0
  0
LINE
  8
0
 62
     0
 10
135.682
 20
73.9331
 30
0.0
 11
135.682
 21
59.9338
 31
0.0
  0
LINE
  8
0
 62
     0
 10
135.682
 20
59.9338
 30
0.0
 11
121.682
 21
59.9338
 31
0.0
  0
LINE
  8
0
 62
     0
 10
121.682
 20
59.9338
 30
0.0
 11
121.682
 21
73.9331
 31
0.0
  0
LINE
  8
0
 62
     0
 10
140.732
 20
73.9331
 30
0.0
 11
154.732
 21
73.9331
 31
0.0
  0
LINE
  8
0
 62
     0
 10
154.732
 20
73.9331
 30
0.0
 11
154.732
 21
59.9338
 31
0.0
  0
LINE
  8
0
 62
     0
 10
154.732
 20
59.9338
 30
0.0
 11
140.732
 21
59.9338
 31
0.0
  0
LINE
  8
0
 62
     0
 10
140.732
 20
59.9338
 30
0.0
 11
140.732
 21
73.9331
 31
0.0
  0
LINE
  8
0
 62
     0
 10
159.782
 20
73.9331
 30
0.0
 11
173.782
 21
73.9331
 31
0.0
  0
LINE
  8
0
 62
     0
 10
173.782
 20
73.9331
 30
0.0
 11
173.782
 21
59.9338
 31
0.0
  0
LINE
  8
0
 62
     0
 10
173.782
 20
59.9338
 30
0.0
 11
159.782
 21
59.9338
 31
0.0
  0
LINE
  8
0
 62
     0
 10
159.782
 20
59.9338
 30
0.0
 11
159.782
 21
73.9331
 31
0.0
  0
LINE
  8
0
 62
     0
 10
178.832
 20
73.9331
 30
0.0
 11
192.832
 21
73.9331
 31
0.0
  0
LINE
  8
0
 62
     0
 10
192.832
 20
73.9331
 30
0.0
 11
192.832
 21
59.9338
 31
0.0
  0
LINE
  8
0
 62
     0
 10
192.832
 20
59.9338
 30
0.0
 11
178.832
 21
59.9338
 31
0.0
  0
LINE
  8
0
 62
     0
 10
178.832
 20
59.9338
 30
0.0
 11
178.832
 21
73.9331
 31
0.0
  0
LINE
  8
0
 62
     0
 10
205.026
 20
73.9331
 30
0.0
 11
219.025
 21
73.9331
 31
0.0
  0
LINE
  8
0
 62
     0
 10
219.025
 20
73.9331
 30
0.0
 11
219.025
 21
59.9338
 31
0.0
  0
LINE
  8
0
 62
     0
 10
219.025
 20
59.9338
 30
0.0
 11
205.026
 21
59.9338
 31
0.0
  0
LINE
  8
0
 62
     0
 10
205.026
 20
59.9338
 30
0.0
 11
205.026
 21
73.9331
 31
0.0
  0
LINE
  8
0
 62
     0
 10
2.61965
 20
92.9831
 30
0.0
 11
16.6192
 21
92.9831
 31
0.0
  0
LINE
  8
0
 62
     0
 10
16.6192
 20
92.9831
 30
0.0
 11
16.6192
 21
78.9838
 31
0.0
  0
LINE
  8
0
 62
     0
 10
16.6192
 20
78.9838
 30
0.0
 11
2.61965
 21
78.9838
 31
0.0
  0
LINE
  8
0
 62
     0
 10
2.61965
 20
78.9838
 30
0.0
 11
2.61965
 21
92.9831
 31
0.0
  0
LINE
  8
0
 62
     0
 10
21.6697
 20
92.9831
 30
0.0
 11
35.669
 21
92.9831
 31
0.0
  0
LINE
  8
0
 62
     0
 10
35.669
 20
92.9831
 30
0.0
 11
35.669
 21
78.9838
 31
0.0
  0
LINE
  8
0
 62
     0
 10
35.669
 20
78.9838
 30
0.0
 11
21.6697
 21
78.9838
 31
0.0
  0
LINE
  8
0
 62
     0
 10
21.6697
 20
78.9838
 30
0.0
 11
21.6697
 21
92.9831
 31
0.0
  0
LINE
  8
0
 62
     0
 10
40.7197
 20
92.9831
 30
0.0
 11
54.719
 21
92.9831
 31
0.0
  0
LINE
  8
0
 62
     0
 10
54.719
 20
92.9831
 30
0.0
 11
54.719
 21
78.9838
 31
0.0
  0
LINE
  8
0
 62
     0
 10
54.719
 20
78.9838
 30
0.0
 11
40.7197
 21
78.9838
 31
0.0
  0
LINE
  8
0
 62
     0
 10
40.7197
 20
78.9838
 30
0.0
 11
40.7197
 21
92.9831
 31
0.0
  0
LINE
  8
0
 62
     0
 10
59.7697
 20
92.9831
 30
0.0
 11
73.769
 21
92.9831
 31
0.0
  0
LINE
  8
0
 62
     0
 10
73.769
 20
92.9831
 30
0.0
 11
73.769
 21
78.9838
 31
0.0
  0
LINE
  8
0
 62
     0
 10
73.769
 20
78.9838
 30
0.0
 11
59.7697
 21
78.9838
 31
0.0
  0
LINE
  8
0
 62
     0
 10
59.7697
 20
78.9838
 30
0.0
 11
59.7697
 21
92.9831
 31
0.0
  0
LINE
  8
0
 62
     0
 10
78.8197
 20
92.9831
 30
0.0
 11
92.819
 21
92.9831
 31
0.0
  0
LINE
  8
0
 62
     0
 10
92.819
 20
92.9831
 30
0.0
 11
92.819
 21
78.9838
 31
0.0
  0
LINE
  8
0
 62
     0
 10
92.819
 20
78.9838
 30
0.0
 11
78.8197
 21
78.9838
 31
0.0
  0
LINE
  8
0
 62
     0
 10
78.8197
 20
78.9838
 30
0.0
 11
78.8197
 21
92.9831
 31
0.0
  0
LINE
  8
0
 62
     0
 10
97.8683
 20
92.9831
 30
0.0
 11
111.869
 21
92.9831
 31
0.0
  0
LINE
  8
0
 62
     0
 10
111.869
 20
92.9831
 30
0.0
 11
111.869
 21
78.9838
 31
0.0
  0
LINE
  8
0
 62
     0
 10
111.869
 20
78.9838
 30
0.0
 11
97.8683
 21
78.9838
 31
0.0
  0
LINE
  8
0
 62
     0
 10
97.8683
 20
78.9838
 30
0.0
 11
97.8683
 21
92.9831
 31
0.0
  0
LINE
  8
0
 62
     0
 10
116.918
 20
92.9831
 30
0.0
 11
130.919
 21
92.9831
 31
0.0
  0
LINE
  8
0
 62
     0
 10
130.919
 20
92.9831
 30
0.0
 11
130.919
 21
78.9838
 31
0.0
  0
LINE
  8
0
 62
     0
 10
130.919
 20
78.9838
 30
0.0
 11
116.918
 21
78.9838
 31
0.0
  0
LINE
  8
0
 62
     0
 10
116.918
 20
78.9838
 30
0.0
 11
116.918
 21
92.9831
 31
0.0
  0
LINE
  8
0
 62
     0
 10
135.97
 20
92.9831
 30
0.0
 11
149.969
 21
92.9831
 31
0.0
  0
LINE
  8
0
 62
     0
 10
149.969
 20
92.9831
 30
0.0
 11
149.969
 21
78.9838
 31
0.0
  0
LINE
  8
0
 62
     0
 10
149.969
 20
78.9838
 30
0.0
 11
135.97
 21
78.9838
 31
0.0
  0
LINE
  8
0
 62
     0
 10
135.97
 20
78.9838
 30
0.0
 11
135.97
 21
92.9831
 31
0.0
  0
LINE
  8
0
 62
     0
 10
155.02
 20
92.9831
 30
0.0
 11
169.019
 21
92.9831
 31
0.0
  0
LINE
  8
0
 62
     0
 10
169.019
 20
92.9831
 30
0.0
 11
169.019
 21
78.9838
 31
0.0
  0
LINE
  8
0
 62
     0
 10
169.019
 20
78.9838
 30
0.0
 11
155.02
 21
78.9838
 31
0.0
  0
LINE
  8
0
 62
     0
 10
155.02
 20
78.9838
 30
0.0
 11
155.02
 21
92.9831
 31
0.0
  0
LINE
  8
0
 62
     0
 10
174.07
 20
92.9831
 30
0.0
 11
188.069
 21
92.9831
 31
0.0
  0
LINE
  8
0
 62
     0
 10
188.069
 20
92.9831
 30
0.0
 11
188.069
 21
78.9838
 31
0.0
  0
LINE
  8
0
 62
     0
 10
188.069
 20
78.9838
 30
0.0
 11
174.07
 21
78.9838
 31
0.0
  0
LINE
  8
0
 62
     0
 10
174.07
 20
78.9838
 30
0.0
 11
174.07
 21
92.9831
 31
0.0
  0
LINE
  8
0
 62
     0
 10
193.12
 20
92.9831
 30
0.0
 11
207.119
 21
92.9831
 31
0.0
  0
LINE
  8
0
 62
     0
 10
207.119
 20
92.9831
 30
0.0
 11
207.119
 21
78.9838
 31
0.0
  0
LINE
  8
0
 62
     0
 10
207.119
 20
78.9838
 30
0.0
 11
193.12
 21
78.9838
 31
0.0
  0
LINE
  8
0
 62
     0
 10
193.12
 20
78.9838
 30
0.0
 11
193.12
 21
92.9831
 31
0.0
  0
LINE
  8
0
 62
     0
 10
212.17
 20
92.9831
 30
0.0
 11
226.169
 21
92.9831
 31
0.0
  0
LINE
  8
0
 62
     0
 10
226.169
 20
92.9831
 30
0.0
 11
226.169
 21
78.9838
 31
0.0
  0
LINE
  8
0
 62
     0
 10
226.169
 20
78.9838
 30
0.0
 11
212.17
 21
78.9838
 31
0.0
  0
LINE
  8
0
 62
     0
 10
212.17
 20
78.9838
 30
0.0
 11
212.17
 21
92.9831
 31
0.0
  0
ENDSEC
  0
EOF
